<svg version="1.1" viewBox="0 0 24 22" xmlns="http://www.w3.org/2000/svg"><path d="m3.3379 1.9941c-1.8451 0-3.3379 1.5227-3.3379 3.3848v13.242c0 1.862 1.4928 3.3848 3.3379 3.3848h13.332c1.8451 0 3.3379-1.5227 3.3379-3.3848v-13.242c2e-6 -1.862-1.4928-3.3848-3.3379-3.3848h-13.332z" color="#000000" color-rendering="auto" dominant-baseline="auto" fill="#2777ff" image-rendering="auto" shape-rendering="auto" solid-color="#000000" stop-color="#000000"/><path d="m3.3379 1.9941c-1.8451 0-3.3379 1.5227-3.3379 3.3848v13.242c0 1.862 1.4928 3.3848 3.3379 3.3848h13.332c1.8451 0 3.3379-1.5227 3.3379-3.3848v-13.242c1e-6 -1.862-1.4928-3.3848-3.3379-3.3848zm0 1h13.332c1.2997 0 2.3379 1.0509 2.3379 2.3848v13.242c0 1.3339-1.0382 2.3848-2.3379 2.3848h-13.332c-1.2997 0-2.3379-1.0509-2.3379-2.3848v-13.242c0-1.3339 1.0382-2.3848 2.3379-2.3848z" color="#000000" color-rendering="auto" dominant-baseline="auto" image-rendering="auto" opacity=".5" shape-rendering="auto" solid-color="#000000" stop-color="#000000"/><rect x="-.20001" y=".22002" width="21.944" height="21.944" color="#000000" fill="none"/><path d="m19.15 3.17-9.5602 9.3674-2.5634-2.5634-2.9285-0.0214 0.0153 2.3264 4.022 4.0221c0.80341 0.80309 2.1056 0.80309 2.9091 0l10.95-11.058 3e-3 -2.1502z" color="#000000" fill="#eeeeec" style="text-indent:0;text-transform:none"/></svg>
