<svg xmlns="http://www.w3.org/2000/svg" width="64" height="64" x="0" y="0" version="1.0" viewBox="0 0 46.55 46.55" xml:space="preserve">
 <path d="m 16.728164,14.270117 c -1.346048,0 -2.452388,1.110735 -2.452388,2.456783 9.8e-5,0.650694 0.256209,1.275944 0.716378,1.736008 l 4.812482,4.808087 -4.794902,4.794901 -0.01757,0.01755 c -0.460057,0.46006 -0.716281,1.085313 -0.716378,1.736009 0,1.346049 1.106339,2.452388 2.452387,2.452388 0.650694,-9.7e-5 1.275944,-0.256208 1.73601,-0.716378 l 4.812482,-4.812481 4.794901,4.7949 0.01328,0.01755 c 0.460035,0.460134 1.08531,0.716281 1.736008,0.716378 1.346048,0 2.456783,-1.106339 2.456783,-2.452389 -1.01e-4,-0.650687 -0.260598,-1.275939 -0.720774,-1.736008 l -4.808085,-4.812481 4.794901,-4.790506 0.01328,-0.01755 c 0.459945,-0.460006 0.720484,-1.085283 0.720586,-1.735979 0,-1.346048 -1.110736,-2.456783 -2.456783,-2.456783 -0.650696,9.9e-5 -1.275945,0.260605 -1.736009,0.720775 l -4.808086,4.812481 -4.794902,-4.794903 -0.01757,-0.01755 c -0.460093,-0.46001 -1.085319,-0.720703 -1.736015,-0.720802 z" style="fill-rule:evenodd;stroke-width:8.728125;stroke:#ffffff"/>
 <path d="m 16.728165,14.270117 c -1.346048,0 -2.452388,1.110735 -2.452388,2.456783 9.8e-5,0.650694 0.256209,1.275944 0.716378,1.736008 l 4.812482,4.808087 -4.794902,4.794901 -0.01757,0.01755 c -0.460057,0.460059 -0.716281,1.085312 -0.716378,1.736009 0,1.346048 1.106339,2.452388 2.452387,2.452388 0.650694,-9.7e-5 1.275944,-0.256209 1.73601,-0.716379 l 4.812482,-4.812481 4.7949,4.794901 0.01328,0.01755 c 0.460034,0.460134 1.085309,0.716281 1.736008,0.716378 1.346047,0 2.456782,-1.106339 2.456782,-2.452389 -1.01e-4,-0.650686 -0.260598,-1.275939 -0.720774,-1.736008 l -4.808084,-4.81248 4.794901,-4.790506 0.01328,-0.01755 c 0.459945,-0.460007 0.720485,-1.085284 0.720587,-1.73598 0,-1.346048 -1.110736,-2.456783 -2.456783,-2.456783 -0.650697,9.9e-5 -1.275945,0.260605 -1.736009,0.720775 l -4.808086,4.812481 -4.794902,-4.794903 -0.01757,-0.01755 c -0.460093,-0.46001 -1.085319,-0.720703 -1.736015,-0.720802 z" style="fill-rule:evenodd"/>
</svg>
