<svg xmlns="http://www.w3.org/2000/svg" width="42" height="42" version="1.1">
 <path d="m 10.960938,2.5292969 c -4.6188829,0 -8.4316411,3.8127582 -8.4316411,8.4316411 v 20.078124 c 0,4.618883 3.8127582,8.431641 8.4316411,8.431641 h 20.078124 c 4.618883,0 8.431641,-3.812758 8.431641,-8.431641 V 10.960938 c 0,-4.6188829 -3.812758,-8.4316411 -8.431641,-8.4316411 z m 0,6 h 20.078124 c 1.398666,0 2.431641,1.0329748 2.431641,2.4316411 v 20.078124 c 0,1.398666 -1.032975,2.431641 -2.431641,2.431641 H 10.960938 c -1.3986663,0 -2.4316411,-1.032975 -2.4316411,-2.431641 V 10.960938 c 0,-1.3986663 1.0329748,-2.4316411 2.4316411,-2.4316411 z"/>
 <rect width="18.122" height="18.122" x="11.94" y="11.94" rx="3.181" ry="3.181"/>
</svg>
