<svg xmlns="http://www.w3.org/2000/svg" width="64" height="64" x="0" y="0" version="1.0" viewBox="0 0 46.55 46.55" xml:space="preserve">
 <g transform="rotate(-180,23.275853,23.27299)">
  <path style="fill-rule:evenodd;stroke:#ffffff;stroke-width:8.72812462" d="m 13.818789,11.360742 c -1.346048,0 -2.452388,1.110735 -2.452388,2.456783 9.8e-5,0.650694 0.256209,1.275944 0.716378,1.736008 l 7.721857,7.717462 -7.704277,7.704276 -0.01757,0.01755 c -0.460057,0.46006 -0.716281,1.085313 -0.716378,1.736009 0,1.346049 1.106339,2.452388 2.452387,2.452388 0.650694,-9.7e-5 1.275944,-0.256208 1.73601,-0.716378 l 7.721857,-7.721856 7.704276,7.704275 0.01328,0.01755 c 0.460035,0.460134 1.08531,0.716281 1.736008,0.716378 1.346048,0 2.456783,-1.106339 2.456783,-2.452389 -1.01e-4,-0.650687 -0.260598,-1.275939 -0.720774,-1.736008 l -7.71746,-7.721856 7.704276,-7.699881 0.01328,-0.01755 c 0.459945,-0.460006 0.720484,-1.085283 0.720586,-1.735979 0,-1.346048 -1.110736,-2.456783 -2.456783,-2.456783 -0.650696,9.9e-5 -1.275945,0.260605 -1.736009,0.720775 l -7.717461,7.721856 -7.704277,-7.704278 -0.01757,-0.01755 c -0.460093,-0.46001 -1.085319,-0.720703 -1.736015,-0.720802 z"/>
  <path d="m 13.818111,11.360485 c -1.346048,0 -2.451944,1.111578 -2.451944,2.457626 9.8e-5,0.650694 0.25581,1.2759 0.715979,1.735965 l 4.909569,4.905308 0.01421,0.01705 c 0.460034,0.460134 1.085266,0.715881 1.735965,0.71598 1.346047,0 2.456206,-1.105895 2.456206,-2.451945 -1.01e-4,-0.650686 -0.260065,-1.275895 -0.720241,-1.735965 l -4.906728,-4.90957 -0.0014,0.0014 -0.01421,-0.0142 c -0.460093,-0.46001 -1.086689,-0.721562 -1.737385,-0.721661 z m 18.912358,0 c -0.650697,9.9e-5 -1.275902,0.261491 -1.735965,0.721661 l -4.906729,4.908149 0.0014,0.0014 -0.01421,0.01421 c -0.460056,0.460047 -0.715882,1.085269 -0.715979,1.735965 0,1.346048 1.105897,2.451945 2.451944,2.451945 0.650694,-9.9e-5 1.277319,-0.25581 1.737385,-0.71598 l 4.90531,-4.906728 0.01278,-0.01705 c 0.459944,-0.460007 0.720139,-1.085269 0.72024,-1.735965 0,-1.346048 -1.110158,-2.457626 -2.456205,-2.457626 z M 18.72484,25.364692 c -0.650697,9.9e-5 -1.275902,0.261491 -1.735966,0.721662 l -0.0014,0.0014 -4.88684,4.88684 -0.01847,0.01847 v 0.0014 c -0.459562,0.459984 -0.715883,1.084218 -0.715979,1.734544 0,1.346048 1.105896,2.451944 2.451944,2.451944 0.650694,-9.7e-5 1.277319,-0.255809 1.737385,-0.715979 l 0.0014,-0.0014 4.891102,-4.888261 0.01279,-0.01705 c 0.459945,-0.460007 0.720139,-1.085268 0.720241,-1.735965 0,-1.346048 -1.110158,-2.457627 -2.456205,-2.457627 z m 9.096058,0.0014 c -1.346047,0 -2.451944,1.111578 -2.451944,2.457626 9.9e-5,0.650694 0.25581,1.2759 0.715979,1.735965 l 4.909571,4.905309 c 0.460034,0.460134 1.085266,0.715882 1.735965,0.715979 1.346047,0 2.456205,-1.105894 2.456205,-2.451944 -1.01e-4,-0.650686 -0.260064,-1.275896 -0.72024,-1.735965 l -4.90673,-4.90957 -0.0014,0.0043 c -0.460092,-0.460011 -1.08669,-0.721563 -1.737386,-0.721662 z" style="fill-rule:evenodd"/>
 </g>
</svg>
