<svg version="1.1" viewBox="0 0 44 44" xmlns="http://www.w3.org/2000/svg"><defs><filter id="a" x="-.12" y="-.12" width="1.24" height="1.24" color-interpolation-filters="sRGB"><feGaussianBlur stdDeviation="1.7"/></filter></defs><path d="m5 7v12h12v-12zm22 0v12h12v-12zm-19 3h6v6h-6zm22 0h6v6h-6zm-25 19v12h12v-12zm22 0v12h12v-12zm-19 3h6v6h-6zm22 0h6v6h-6z" filter="url(#a)" opacity=".9" stroke-width=".5625"/><path d="m5 5v12h12v-12h-12zm22 0v12h12v-12h-12zm-19 3h6v6h-6v-6zm22 0h6v6h-6v-6zm-25 19v12h12v-12h-12zm22 0v12h12v-12h-12zm-19 3h6v6h-6v-6zm22 0h6v6h-6v-6z" fill="#fff" stroke-width=".5625"/></svg>
