<?xml version="1.0" encoding="UTF-8" standalone="no"?>
<!-- Created with Inkscape (http://www.inkscape.org/) -->

<svg
   xmlns:dc="http://purl.org/dc/elements/1.1/"
   xmlns:cc="http://creativecommons.org/ns#"
   xmlns:rdf="http://www.w3.org/1999/02/22-rdf-syntax-ns#"
   xmlns:svg="http://www.w3.org/2000/svg"
   xmlns="http://www.w3.org/2000/svg"
   xmlns:xlink="http://www.w3.org/1999/xlink"
   xmlns:sodipodi="http://sodipodi.sourceforge.net/DTD/sodipodi-0.dtd"
   xmlns:inkscape="http://www.inkscape.org/namespaces/inkscape"
   width="40"
   height="40"
   id="svg5038"
   version="1.1"
   inkscape:version="0.48.5 r10040"
   sodipodi:docname="checkbox.svg">
  <defs
     id="defs5040">
    <linearGradient
       inkscape:collect="always"
       id="linearGradient3849">
      <stop
         style="stop-color:#ffffff;stop-opacity:1;"
         offset="0"
         id="stop3851" />
      <stop
         style="stop-color:#f6f6f6;stop-opacity:1"
         offset="1"
         id="stop3853" />
    </linearGradient>
    <inkscape:path-effect
       effect="spiro"
       id="path-effect5837"
       is_visible="true" />
    <inkscape:path-effect
       effect="spiro"
       id="path-effect5012"
       is_visible="true" />
    <inkscape:path-effect
       effect="spiro"
       id="path-effect5884"
       is_visible="true" />
    <linearGradient
       y2="1106.5294"
       x2="808"
       y1="1040.7369"
       x1="806.39526"
       gradientTransform="matrix(0.04728153,0,0,0.52063887,144.29163,-314.78125)"
       gradientUnits="userSpaceOnUse"
       id="linearGradient5726"
       xlink:href="#linearGradient85841-7-0"
       inkscape:collect="always" />
    <linearGradient
       inkscape:collect="always"
       id="linearGradient85841-7-0">
      <stop
         style="stop-color:#242424;stop-opacity:1"
         offset="0"
         id="stop85843-4-8" />
      <stop
         id="stop85845-0-5"
         offset="0.63381755"
         style="stop-color:#101010;stop-opacity:1;" />
      <stop
         style="stop-color:#262626;stop-opacity:1"
         offset="1"
         id="stop85847-7-3" />
    </linearGradient>
    <linearGradient
       inkscape:collect="always"
       xlink:href="#linearGradient3849"
       id="linearGradient3855"
       x1="20"
       y1="18"
       x2="20"
       y2="38"
       gradientUnits="userSpaceOnUse"
       gradientTransform="translate(0,1)" />
  </defs>
  <sodipodi:namedview
     id="base"
     pagecolor="#ffffff"
     bordercolor="#666666"
     borderopacity="1.0"
     inkscape:pageopacity="0.0"
     inkscape:pageshadow="2"
     inkscape:zoom="2.8284271"
     inkscape:cx="30.274744"
     inkscape:cy="21.488357"
     inkscape:current-layer="layer1"
     showgrid="false"
     inkscape:grid-bbox="true"
     inkscape:document-units="px"
     inkscape:window-width="1364"
     inkscape:window-height="710"
     inkscape:window-x="0"
     inkscape:window-y="27"
     inkscape:window-maximized="1"
     inkscape:snap-bbox="true"
     inkscape:bbox-paths="true"
     inkscape:snap-bbox-edge-midpoints="true"
     inkscape:snap-bbox-midpoints="true"
     inkscape:bbox-nodes="true">
    <inkscape:grid
       type="xygrid"
       id="grid3072"
       empspacing="5"
       visible="true"
       enabled="true"
       snapvisiblegridlinesonly="true" />
  </sodipodi:namedview>
  <metadata
     id="metadata5043">
    <rdf:RDF>
      <cc:Work
         rdf:about="">
        <dc:format>image/svg+xml</dc:format>
        <dc:type
           rdf:resource="http://purl.org/dc/dcmitype/StillImage" />
        <dc:title></dc:title>
      </cc:Work>
    </rdf:RDF>
  </metadata>
  <g
     id="layer1"
     inkscape:label="Layer 1"
     inkscape:groupmode="layer"
     transform="translate(0,-8)">
    <path
       style="color:#000000;fill:url(#linearGradient3855);fill-opacity:1;fill-rule:nonzero;stroke:none;stroke-width:0.5;marker:none;visibility:visible;display:inline;overflow:visible;enable-background:new"
       d="m 11.2,17 c -0.179012,0 -0.349221,0.02877 -0.515625,0.06875 C 9.717815,17.300959 9,18.160211 9,19.2 l 0,17.6 c 0,1.2188 0.9812,2.2 2.2,2.2 l 17.6,0 C 30.0188,39 31,38.0188 31,36.8 L 31,19.2 C 31,18.160211 30.282185,17.300959 29.315625,17.06875 29.145002,17.048816 28.976147,17 28.8,17 z"
       id="path4863-7-1"
       inkscape:connector-curvature="0"
       sodipodi:nodetypes="sssssssscss" />
    <path
       style="color:#000000;fill:#97a7ab;fill-opacity:1;fill-rule:nonzero;stroke:none;stroke-width:0.50000000000000000;marker:none;visibility:visible;display:inline;overflow:visible;enable-background:new"
       d="m 12,16 c -2.216,0 -4,1.784 -4,4 l 0,16 c 0,2.216 1.784,4 4,4 l 16,0 c 2.216,0 4,-1.784 4,-4 l 0,-16 c 0,-2.216 -1.784,-4 -4,-4 z m 0,2 16,0 c 1.108,0 2,0.892 2,2 l 0,16 c 0,1.108 -0.892,2 -2,2 l -16,0 c -1.108,0 -2,-0.892 -2,-2 l 0,-16 c 0,-1.108 0.892,-2 2,-2 z"
       id="path4681-0"
       inkscape:connector-curvature="0"
       sodipodi:nodetypes="ssssssssssssssssss" />
    <path
       inkscape:connector-curvature="0"
       id="path4614"
       d="m 34.245273,13.656631 c -0.43776,0.0946 -0.841174,0.34106 -1.125,0.6875 l -12.5625,14.374999 -4.5,-4.5 c -0.752656,-0.75276 -2.122386,-0.7528 -2.87509,-10e-5 -0.752704,0.75272 -0.752662,2.12244 9e-5,2.8751 l 6,6 1.5625,1.5 1.375,-1.625 14.000002,-15.999999 c 1.134844,-1.23546 -0.231654,-3.6496 -1.875002,-3.3125 z"
       style="font-size:medium;font-style:normal;font-variant:normal;font-weight:normal;font-stretch:normal;text-indent:0;text-align:start;text-decoration:none;line-height:normal;letter-spacing:normal;word-spacing:normal;text-transform:none;direction:ltr;block-progression:tb;writing-mode:lr-tb;text-anchor:start;baseline-shift:baseline;color:#000000;fill:#9FB0B9;fill-opacity:1;stroke:none;stroke-width:2;marker:none;visibility:visible;display:inline;overflow:visible;enable-background:accumulate;font-family:Sans;-inkscape-font-specification:Sans"
       sodipodi:nodetypes="ccccscccccc" />
  </g>
</svg>
