<?xml version="1.0" encoding="UTF-8" standalone="no"?>
<!-- Generator: Adobe Illustrator 13.0.2, SVG Export Plug-In . SVG Version: 6.00 Build 14948)  -->

<svg
   xmlns:dc="http://purl.org/dc/elements/1.1/"
   xmlns:cc="http://creativecommons.org/ns#"
   xmlns:rdf="http://www.w3.org/1999/02/22-rdf-syntax-ns#"
   xmlns:svg="http://www.w3.org/2000/svg"
   xmlns="http://www.w3.org/2000/svg"
   xmlns:xlink="http://www.w3.org/1999/xlink"
   xmlns:sodipodi="http://sodipodi.sourceforge.net/DTD/sodipodi-0.dtd"
   xmlns:inkscape="http://www.inkscape.org/namespaces/inkscape"
   version="1.0"
   id="Foreground"
   x="0px"
   y="0px"
   width="32"
   height="32"
   viewBox="0 0 23.272727 23.272727"
   enable-background="new 0 0 16 16"
   xml:space="preserve"
   sodipodi:version="0.32"
   inkscape:version="0.91 r13725"
   sodipodi:docname="close-window.svg"
   inkscape:output_extension="org.inkscape.output.svg.inkscape"><metadata
     id="metadata2399"><rdf:RDF><cc:Work
         rdf:about=""><dc:format>image/svg+xml</dc:format><dc:type
           rdf:resource="http://purl.org/dc/dcmitype/StillImage" /><dc:title></dc:title></cc:Work></rdf:RDF></metadata><defs
     id="defs2397"><linearGradient
       id="linearGradient3940"><stop
         id="stop3942"
         offset="0"
         style="stop-color:#f6f6f6;stop-opacity:1" /><stop
         id="stop3944"
         offset="1"
         style="stop-color:#ffffff;stop-opacity:1;" /></linearGradient><linearGradient
       id="linearGradient3839"><stop
         style="stop-color:#2e2e2e;stop-opacity:1;"
         offset="0"
         id="stop3841" /><stop
         style="stop-color:#565656;stop-opacity:1;"
         offset="1"
         id="stop3843" /></linearGradient><linearGradient
       id="linearGradient3173"><stop
         style="stop-color:#ececec;stop-opacity:1"
         offset="0"
         id="stop3175" /><stop
         style="stop-color:#ffffff;stop-opacity:1;"
         offset="1"
         id="stop3177" /></linearGradient><inkscape:perspective
       sodipodi:type="inkscape:persp3d"
       inkscape:vp_x="0 : 8.0000001 : 1"
       inkscape:vp_y="0 : 1000 : 0"
       inkscape:vp_z="16 : 8.0000001 : 1"
       inkscape:persp3d-origin="8.0000001 : 5.3333334 : 1"
       id="perspective2401" /><clipPath
       clipPathUnits="userSpaceOnUse"
       id="clipPath3811"><path
         id="path3813"
         d="M 16,4 C 9.3725829,4 4,9.3725831 4,16 4,22.627417 9.3725829,28 16,28 22.627417,28 28,22.627417 28,16 28,9.3725831 22.627417,4 16,4 Z m -4,8 1,0 c 0.276141,0 0.537786,0.100278 0.71875,0.28125 L 16,14.5625 18.28125,12.28125 C 18.462214,12.100279 18.723857,12 19,12 l 1,0 0,1 c 0.03655,0.27371 -0.100292,0.537781 -0.28125,0.71875 L 17.4375,16 19.71875,18.28125 C 19.899714,18.462221 20,18.72386 20,19 l 0,1 -1,0 c -0.276143,0 -0.537786,-0.100279 -0.71875,-0.28125 L 16,17.4375 13.71875,19.71875 C 13.537786,19.899719 13.276141,20 13,20 l -1,0 0,-1 c 0,-0.27614 0.100279,-0.537779 0.28125,-0.71875 L 14.5625,16 12.28125,13.71875 C 12.100286,13.537781 12,13.27614 12,13 l 0,-1 z"
         style="color:#000000;display:inline;overflow:visible;visibility:visible;fill:#a348b1;fill-opacity:1;stroke:none;stroke-width:2;marker:none;enable-background:new"
         inkscape:connector-curvature="0" /></clipPath><linearGradient
       inkscape:collect="always"
       xlink:href="#linearGradient3173"
       id="linearGradient3876"
       x1="4"
       y1="16"
       x2="28"
       y2="16"
       gradientUnits="userSpaceOnUse" /><clipPath
       clipPathUnits="userSpaceOnUse"
       id="clipPath3782"><path
         sodipodi:nodetypes="sssss"
         inkscape:connector-curvature="0"
         id="path3784"
         d="m 0,8.7272733 c 0,4.8199397 3.9073336,8.7272717 8.7272734,8.7272717 4.8199406,0 8.7272716,-3.907332 8.7272716,-8.7272717 C 17.454545,3.9073352 13.547214,7e-7 8.7272734,7e-7 3.9073336,7e-7 0,3.9073352 0,8.7272733 Z"
         style="color:#000000;display:inline;overflow:visible;visibility:visible;opacity:0.8;fill:#000000;fill-opacity:1;fill-rule:nonzero;stroke:none;stroke-width:2;marker:none;enable-background:new" /></clipPath></defs><sodipodi:namedview
     inkscape:window-height="699"
     inkscape:window-width="1364"
     inkscape:pageshadow="2"
     inkscape:pageopacity="0"
     guidetolerance="10.0"
     gridtolerance="10.0"
     objecttolerance="10.0"
     borderopacity="1.0"
     bordercolor="#666666"
     pagecolor="#848484"
     id="base"
     showgrid="false"
     inkscape:zoom="1"
     inkscape:cx="22.051595"
     inkscape:cy="5.6736828"
     inkscape:window-x="0"
     inkscape:window-y="27"
     inkscape:current-layer="Foreground"
     showguides="true"
     inkscape:guide-bbox="true"
     borderlayer="true"
     inkscape:showpageshadow="false"
     inkscape:window-maximized="0"
     inkscape:snap-bbox="true"
     inkscape:bbox-nodes="true"
     inkscape:bbox-paths="true"
     inkscape:snap-bbox-edge-midpoints="true"
     inkscape:snap-bbox-midpoints="true"><inkscape:grid
       type="xygrid"
       id="grid11246"
       empspacing="5"
       visible="true"
       enabled="true"
       snapvisiblegridlinesonly="true" /></sodipodi:namedview><path
     sodipodi:nodetypes="sssss"
     inkscape:connector-curvature="0"
     id="path4229"
     d="m 2.9090905,12.363638 c 0,4.81994 3.9073331,8.727271 8.7272715,8.727271 4.81994,0 8.72727,-3.907331 8.72727,-8.727271 0,-4.819938 -3.90733,-8.7272718 -8.72727,-8.7272718 -4.8199384,0 -8.7272715,3.9073338 -8.7272715,8.7272718 z"
     style="color:#000000;display:inline;overflow:visible;visibility:visible;opacity:0.02;fill:#000000;fill-opacity:1;fill-rule:nonzero;stroke:#000000;stroke-width:2.90909066;marker:none;enable-background:new;stroke-opacity:1;stroke-miterlimit:4;stroke-dasharray:none" /><path
     style="color:#000000;display:inline;overflow:visible;visibility:visible;opacity:0.1;fill:#000000;fill-opacity:1;fill-rule:nonzero;stroke:#000000;stroke-width:1.45454533;marker:none;enable-background:new;stroke-opacity:1;stroke-miterlimit:4;stroke-dasharray:none"
     d="m 2.9090905,12.363638 c 0,4.81994 3.9073331,8.727271 8.7272715,8.727271 4.81994,0 8.72727,-3.907331 8.72727,-8.727271 0,-4.819938 -3.90733,-8.7272718 -8.72727,-8.7272718 -4.8199384,0 -8.7272715,3.9073338 -8.7272715,8.7272718 z"
     id="path4156"
     inkscape:connector-curvature="0"
     sodipodi:nodetypes="sssss" /><path
     sodipodi:nodetypes="sssss"
     inkscape:connector-curvature="0"
     id="path4154"
     d="m 2.9090905,12.363638 c 0,4.81994 3.9073331,8.727271 8.7272715,8.727271 4.81994,0 8.72727,-3.907331 8.72727,-8.727271 0,-4.819938 -3.90733,-8.7272718 -8.72727,-8.7272718 -4.8199384,0 -8.7272715,3.9073338 -8.7272715,8.7272718 z"
     style="color:#000000;display:inline;overflow:visible;visibility:visible;opacity:0.3;fill:#000000;fill-opacity:1;fill-rule:nonzero;stroke:none;stroke-width:2;marker:none;enable-background:new" /><path
     style="color:#000000;display:inline;overflow:visible;visibility:visible;opacity:1;fill:#636e73;fill-opacity:1;fill-rule:nonzero;stroke:none;stroke-width:2;marker:none;enable-background:new"
     d="m 2.9090905,11.636365 c 0,4.81994 3.9073331,8.727271 8.7272715,8.727271 4.81994,0 8.72727,-3.907331 8.72727,-8.727271 0,-4.8199377 -3.90733,-8.7272715 -8.72727,-8.7272715 -4.8199384,0 -8.7272715,3.9073338 -8.7272715,8.7272715 z"
     id="path5757"
     inkscape:connector-curvature="0"
     sodipodi:nodetypes="sssss" /><g
     transform="translate(-0.72727297,1.454546)"
     id="g3770"
     style="fill:none"><path
       style="color:#000000;display:inline;overflow:visible;visibility:visible;opacity:0.8;fill:none;fill-opacity:1;fill-rule:nonzero;stroke:none;stroke-width:2;marker:none;enable-background:new"
       d="m 3.6363636,10.181818 c 0,4.81994 3.9073336,8.727272 8.7272734,8.727272 4.819941,0 8.727272,-3.907332 8.727272,-8.727272 0,-4.8199381 -3.907331,-8.7272726 -8.727272,-8.7272726 -4.8199398,0 -8.7272734,3.9073345 -8.7272734,8.7272726 z"
       id="path3772"
       inkscape:connector-curvature="0"
       sodipodi:nodetypes="sssss" /><path
       style="color:#000000;display:inline;overflow:visible;visibility:visible;fill:none;fill-opacity:1;fill-rule:nonzero;stroke:none;stroke-width:2;marker:none;enable-background:new"
       d="m 9.4545455,13.093068 0.7272725,0 c 0.200829,0 0.391114,-0.07293 0.522727,-0.204545 l 1.659092,-1.659091 1.65909,1.659091 c 0.131616,0.13161 0.321899,0.204545 0.522728,0.204545 l 0.727272,0 0,-0.727272 c 0,-0.200831 -0.07293,-0.391117 -0.204545,-0.522728 l -1.659091,-1.65909 1.659091,-1.6590912 c 0.131614,-0.13161 0.204545,-0.321897 0.204545,-0.522727 l 0,-0.7272726 -0.727272,0 c -0.200829,0 -0.391112,0.07293 -0.522728,0.2045455 l -1.65909,1.659091 -1.659092,-1.659091 C 10.572932,7.3478225 10.38088,7.248304 10.181818,7.2748872 l -0.7272725,0 0,0.7272726 c 0,0.20083 0.07293,0.391117 0.2045455,0.522727 l 1.659091,1.6590912 -1.659091,1.65909 c -0.1316153,0.131611 -0.2045455,0.321897 -0.2045455,0.522728 z"
       id="path3774"
       inkscape:connector-curvature="0"
       sodipodi:nodetypes="cssccscscccscsscsccscccsc" /></g><path
     style="color:#000000;display:inline;overflow:visible;visibility:visible;opacity:0.1;fill:#ffffff;fill-opacity:1;fill-rule:nonzero;stroke:none;stroke-width:2;marker:none;enable-background:new"
     d="M 16 4 C 9.3725841 4 4 9.3725851 4 16 C 4 16.16885 4.018484 16.332847 4.0253906 16.5 C 4.289571 10.10635 9.541434 5 16 5 C 22.458568 5 27.710429 10.10635 27.974609 16.5 C 27.981516 16.332847 28 16.16885 28 16 C 28 9.3725851 22.627418 4 16 4 z "
     transform="scale(0.72727266,0.72727266)"
     id="path4158" /><path
     style="color:#000000;font-style:normal;font-variant:normal;font-weight:normal;font-stretch:normal;font-size:medium;line-height:normal;font-family:sans-serif;text-indent:0;text-align:start;text-decoration:none;text-decoration-line:none;text-decoration-style:solid;text-decoration-color:#000000;letter-spacing:normal;word-spacing:normal;text-transform:none;direction:ltr;block-progression:tb;writing-mode:lr-tb;baseline-shift:baseline;text-anchor:start;white-space:normal;clip-rule:nonzero;display:inline;overflow:visible;visibility:visible;opacity:0.8;isolation:auto;mix-blend-mode:normal;color-interpolation:sRGB;color-interpolation-filters:linearRGB;solid-color:#000000;solid-opacity:1;fill:#ffffff;fill-opacity:1;fill-rule:evenodd;stroke:none;stroke-width:1.45454538;stroke-linecap:butt;stroke-linejoin:miter;stroke-miterlimit:4;stroke-dasharray:none;stroke-dashoffset:0;stroke-opacity:1;color-rendering:auto;image-rendering:auto;shape-rendering:auto;text-rendering:auto;enable-background:accumulate"
     d="m 12,11 c -0.552285,0 -1,0.447715 -1,1 4e-5,0.265201 0.105423,0.519526 0.292969,0.707031 L 14.585938,16 l -3.283204,3.283203 -0.0098,0.0098 C 11.105423,19.480474 11.00004,19.734799 11,20 c 0,0.552285 0.447715,1 1,1 0.265201,-4e-5 0.519526,-0.105423 0.707031,-0.292969 L 16,17.414062 l 3.283203,3.283204 0.0098,0.0098 C 19.480474,20.894577 19.734799,20.99996 20,21 c 0.552285,0 1,-0.447715 1,-1 -4e-5,-0.265201 -0.105423,-0.519526 -0.292969,-0.707031 L 17.414062,16 l 3.283204,-3.283203 0.0098,-0.0098 C 20.894577,12.519526 20.99996,12.265201 21,12 c 0,-0.552285 -0.447715,-1 -1,-1 -0.265201,4e-5 -0.519526,0.105423 -0.707031,0.292969 L 16,14.585938 l -3.283203,-3.283204 -0.0098,-0.0098 C 12.519526,11.105423 12.265201,11.00004 12,11 Z"
     transform="scale(0.72727266,0.72727266)"
     id="path4165"
     inkscape:connector-curvature="0"
     sodipodi:nodetypes="ccccccccccccccccccccccccc" /></svg>