<?xml version="1.0" encoding="UTF-8" standalone="no"?>
<!-- Created with Inkscape (http://www.inkscape.org/) -->

<svg
   xmlns:dc="http://purl.org/dc/elements/1.1/"
   xmlns:cc="http://creativecommons.org/ns#"
   xmlns:rdf="http://www.w3.org/1999/02/22-rdf-syntax-ns#"
   xmlns:svg="http://www.w3.org/2000/svg"
   xmlns="http://www.w3.org/2000/svg"
   xmlns:sodipodi="http://sodipodi.sourceforge.net/DTD/sodipodi-0.dtd"
   xmlns:inkscape="http://www.inkscape.org/namespaces/inkscape"
   version="1.1"
   width="64"
   height="64"
   id="svg7384"
   inkscape:version="0.91+devel r14080 custom"
   sodipodi:docname="view-grid-symbolic.svg"
   viewBox="0 0 64 64">
  <sodipodi:namedview
     pagecolor="#ffffff"
     bordercolor="#666666"
     borderopacity="1"
     objecttolerance="10"
     gridtolerance="10"
     guidetolerance="10"
     inkscape:pageopacity="0"
     inkscape:pageshadow="2"
     inkscape:window-width="1920"
     inkscape:window-height="1008"
     id="namedview7"
     inkscape:document-units="px"
     showgrid="false"
     inkscape:zoom="3.6875"
     inkscape:cx="32"
     inkscape:cy="50.75287"
     inkscape:window-x="0"
     inkscape:window-y="32"
     inkscape:window-maximized="1"
     inkscape:current-layer="svg7384" />
  <title
     id="title9167">Gnome Symbolic Icon Theme</title>
  <defs
     id="defs11" />
  <metadata
     id="metadata90">
    <rdf:RDF>
      <cc:Work
         rdf:about="">
        <dc:format>image/svg+xml</dc:format>
        <dc:type
           rdf:resource="http://purl.org/dc/dcmitype/StillImage" />
        <dc:title>Gnome Symbolic Icon Theme</dc:title>
      </cc:Work>
    </rdf:RDF>
  </metadata>
  <path
     d="m 7,7 0,16.666667 16.666667,0 0,-16.666667 z m 33.333333,0 0,16.666667 16.666667,0 L 57,7 Z m -29.166666,4.166667 8.333333,0 0,8.333333 -8.333333,0 z m 33.333333,0 8.333333,0 0,8.333333 L 44.5,19.5 Z M 7,40.333333 7,57 l 16.666667,0 0,-16.666667 z m 33.333333,0 0,16.666667 L 57,57 57,40.333333 Z M 11.166667,44.5 19.5,44.5 l 0,8.333333 -8.333333,0 z m 33.333333,0 8.333333,0 0,8.333333 -8.333333,0 z"
     inkscape:connector-curvature="0"
     id="rect2999"
     style="color:#bebebe;display:inline;overflow:visible;visibility:visible;opacity:1;fill:#ffffff;fill-opacity:1;fill-rule:nonzero;stroke:none;stroke-width:4.16666603;marker:none;enable-background:accumulate" />
</svg>
