<svg xmlns="http://www.w3.org/2000/svg" height="64" style="enable-background:new" width="64" version="1.1">
 <g transform="translate(-405.00043,303.00336)">
  <path d="m 437.00156,-299.99996 c 2.20912,0 4,1.79088 4,4 -0.001,0.1332 -0.008,0.266 -0.024,0.3984 9.16128,1.83532 16.02412,9.88492 16.02344,19.60156 l -5.6e-4,7.99996 0,10 8,8 0,2 -8,0 -40,0 -8,0 0,-2 8,-8 L 417.001,-276 c 3.2e-4,-9.71664 6.86272,-17.76628 16.02344,-19.60156 -0.016,-0.1324 -0.024,-0.2652 -0.024,-0.3984 0,-2.20912 1.79088,-4 4,-4 z M 443.91508,-244 c -1.42652,2.47084 -4.061,3.99496 -6.91408,4 -2.85588,-0.002 -5.49396,-1.52676 -6.92188,-4 z" style="fill:#fff"/>
 </g>
</svg>
