<svg version="1.1" viewBox="0 0 46 22" xmlns="http://www.w3.org/2000/svg"><path d="m10.998 0.035156c-6.0506 0-10.955 4.7133-10.955 10.572v0.76562c0 5.859 4.9045 10.572 10.955 10.572h23.535c6.0506 0 10.955-4.7133 10.955-10.572v-0.76562c0-5.859-4.9045-10.572-10.955-10.572h-23.535z" color="#000000" color-rendering="auto" dominant-baseline="auto" fill="#ec0101" image-rendering="auto" shape-rendering="auto" solid-color="#000000" stop-color="#000000"/><path d="m34.533 0.035156c6.0506 0 10.955 4.7133 10.955 10.572v0.76562c0 5.859-4.9045 10.572-10.955 10.572h-23.535c-6.0506 0-10.955-4.7133-10.955-10.572v-0.76562c0-5.859 4.9045-10.572 10.955-10.572zm0 1h-23.535c-5.5335 0-9.9551 4.2704-9.9551 9.5723v0.76562c0 5.3019 4.4216 9.5723 9.9551 9.5723h23.535c5.5335 0 9.9551-4.2704 9.9551-9.5723v-0.76562c0-5.3019-4.4216-9.5723-9.9551-9.5723z" color="#000000" color-rendering="auto" dominant-baseline="auto" image-rendering="auto" opacity=".5" shape-rendering="auto" solid-color="#000000" stop-color="#000000"/><rect transform="scale(-1,1)" x="-45.071" y=".535" width="21.143" height="20.911" rx="10.455" ry="10.455" fill="#2e313d" stroke="#000" stroke-linecap="round" stroke-linejoin="round"/></svg>
