<svg xmlns="http://www.w3.org/2000/svg" xmlns:xlink="http://www.w3.org/1999/xlink" width="297mm" height="100mm" version="1.1" viewBox="0 0 297 100">
 <defs>
  <filter id="filter4183" width="1.072" height="1.072" x="-.04" y="-.04" style="color-interpolation-filters:sRGB">
   <feGaussianBlur stdDeviation="3.746"/>
  </filter>
  <linearGradient id="linearGradient4150-5" x1="-44" x2="-24" y1="-24" y2="-24" gradientTransform="matrix(.94245151 -.95611607 -.95611595 -.94245157 260.16632 113.49946)" gradientUnits="userSpaceOnUse" xlink:href="#linearGradient4144"/>
  <linearGradient id="linearGradient4144">
   <stop offset="0" stop-opacity="0"/>
   <stop offset="1"/>
  </linearGradient>
  <linearGradient id="linearGradient4156-7" x1="-44" x2="-24" y1="-24" y2="-24" gradientTransform="matrix(-.95611595 -.94245157 .94245151 -.95611607 260.16632 113.49946)" gradientUnits="userSpaceOnUse" xlink:href="#linearGradient4144"/>
 </defs>
 <g transform="translate(0,-110)">
  <g style="opacity:.3;fill:#FFFFFF" transform="translate(-29.628962,1.6933433)">
   <path style="fill:#FFFFFF" d="m50.326454 150.15748h14.216955v-4.94312h-19.597526v30.27117h5.380571v-11.50479h12.467176v-4.94313h-12.467176v-8.88013z"/>
   <path style="fill:#FFFFFF" d="m76.386542 171.59228c-1.706035 0-2.012246-1.70604-2.012246-4.4182v-23.09708h-5.380571v24.1907c0 3.84951 1.137357 7.65528 6.692905 7.65528 1.531057 0 2.974624-0.43745 2.974624-0.43745l-1.049867-4.02449s-0.568678 0.13124-1.224845 0.13124z"/>
   <path style="fill:#FFFFFF" d="m92.970484 170.49866c-1.137357 0.69992-2.405947 1.22485-4.330704 1.22485s-3.499558-0.74366-3.499558-2.49344c0-2.93088 4.59317-2.93088 7.830262-2.93088v4.19947zm0-7.91775c-6.474183 0-13.210832 0.61243-13.210832 7.04286 0 4.0245 3.368324 6.29921 7.567794 6.29921 2.449691 0 4.505681-0.61242 6.124227-1.88101l0.699911 1.44356h4.19947v-12.9921c0-6.08049-3.105858-8.53018-9.667529-8.53018-2.755902 0-6.25546 0.65617-7.305328 1.35608l1.049868 4.02449c1.356079-0.74365 3.762025-1.39982 5.424315-1.39982 3.980747 0 5.118104 0.91863 5.118104 4.63691z"/>
   <path style="fill:#FFFFFF" d="m118.90071 174.74188-0.7874-3.71828c-0.78741 0.21872-2.40595 0.61242-3.89326 0.61242-2.88714 0-3.54331-1.44357-3.54331-3.06211v-9.93h7.26159v-4.19947h-7.26159v-6.60541h-5.38057v6.60541h-3.49955v4.19947h3.49955v10.06123c0 3.71828 0.91864 7.21784 7.61154 7.21784 2.01225 0 4.50568-0.61242 5.993-1.1811z"/>
   <path style="fill:#FFFFFF" d="m135.08343 175.48553h5.38057v-11.76726h4.89938l6.99911 11.76726h6.16798l-7.65529-12.64215c4.50568-1.44357 6.7804-4.37445 6.7804-8.66141 0-5.99299-4.15573-8.96761-12.55467-8.96761h-10.01748v30.27117zm17.06034-21.08483c0 4.06823-4.24321 4.37444-8.96762 4.37444h-2.71215v-8.61766h4.06823c4.06824 0 7.61154 0.52494 7.61154 4.24322z"/>
   <path style="fill:#FFFFFF" d="m172.41182 171.67977c-5.16185 0-6.34295-2.23097-6.56167-4.94313h14.43568v-2.05599c0-6.86788-3.23709-10.7174-9.5363-10.7174-6.25546 0-10.32369 4.89938-10.32369 10.97987 0 6.82413 4.19947 10.97986 11.28607 10.97986 2.79965 0 5.5118-0.48119 8.09273-1.31233l-1.04987-4.0245c-1.92476 0.74366-4.02449 1.09362-6.34295 1.09362zm-6.51792-8.66141c0.26246-2.53718 1.35607-4.89938 4.94312-4.89938 2.62467 0 4.06824 1.53105 4.06824 4.89938h-9.01136z"/>
   <path style="fill:#FFFFFF" d="m196.17805 153.96325c-2.7559 0-4.98687 1.22485-6.82413 1.83727l-0.78741-1.35608h-3.76202v21.04109h5.38057v-15.8355c1.61855-0.69991 2.7559-1.1811 4.54943-1.1811 2.44969 0 3.41207 1.88102 3.41207 4.24322v12.77338h5.38057v-11.89849c0-1.26859-0.13124-2.58093-0.3937-3.80577 1.74977-0.7874 2.93088-1.31234 4.94312-1.31234 2.44969 0 3.28084 1.88102 3.28084 4.24322v12.77338h5.38057v-12.11722c0-5.64303-1.35608-9.40506-7.26159-9.40506-2.27471 0-4.89938 0.74366-7.78651 2.18723-1.26859-1.44357-3.10586-2.18723-5.51181-2.18723z"/>
   <path style="fill:#FFFFFF" d="m224.98038 151.90726c1.70603 0 3.23709-1.53105 3.23709-3.23709 0-1.70603-1.53106-3.23709-3.23709-3.23709s-3.23709 1.53106-3.23709 3.23709c0 1.70604 1.53106 3.23709 3.23709 3.23709zm-2.62467 2.53718v21.04109h5.24934v-21.04109h-5.24934z"/>
   <path style="fill:#FFFFFF" d="m230.79429 154.44444 7.48031 10.67365-7.13035 10.36744h5.77427l4.50568-6.82413 4.59317 6.82413h5.77427l-7.34907-10.36744 7.61154-10.67365h-5.94925l-4.63691 7.21784-4.85564-7.21784h-5.81802z"/>
  </g>
  <g style="fill:#FFFFFF" transform="translate(-29.628962,9.8239242e-6)">
   <path style="fill:#FFFFFF" d="m50.326454 150.15748h14.216955v-4.94312h-19.597526v30.27117h5.380571v-11.50479h12.467176v-4.94313h-12.467176v-8.88013z"/>
   <path style="fill:#FFFFFF" d="m76.386542 171.59228c-1.706035 0-2.012246-1.70604-2.012246-4.4182v-23.09708h-5.380571v24.1907c0 3.84951 1.137357 7.65528 6.692905 7.65528 1.531057 0 2.974624-0.43745 2.974624-0.43745l-1.049867-4.02449s-0.568678 0.13124-1.224845 0.13124z"/>
   <path style="fill:#FFFFFF" d="m92.970484 170.49866c-1.137357 0.69992-2.405947 1.22485-4.330704 1.22485s-3.499558-0.74366-3.499558-2.49344c0-2.93088 4.59317-2.93088 7.830262-2.93088v4.19947zm0-7.91775c-6.474183 0-13.210832 0.61243-13.210832 7.04286 0 4.0245 3.368324 6.29921 7.567794 6.29921 2.449691 0 4.505681-0.61242 6.124227-1.88101l0.699911 1.44356h4.19947v-12.9921c0-6.08049-3.105858-8.53018-9.667529-8.53018-2.755902 0-6.25546 0.65617-7.305328 1.35608l1.049868 4.02449c1.356079-0.74365 3.762025-1.39982 5.424315-1.39982 3.980747 0 5.118104 0.91863 5.118104 4.63691z"/>
   <path style="fill:#FFFFFF" d="m118.90071 174.74188-0.7874-3.71828c-0.78741 0.21872-2.40595 0.61242-3.89326 0.61242-2.88714 0-3.54331-1.44357-3.54331-3.06211v-9.93h7.26159v-4.19947h-7.26159v-6.60541h-5.38057v6.60541h-3.49955v4.19947h3.49955v10.06123c0 3.71828 0.91864 7.21784 7.61154 7.21784 2.01225 0 4.50568-0.61242 5.993-1.1811z"/>
   <path style="fill:#FFFFFF" d="m135.08343 175.48553h5.38057v-11.76726h4.89938l6.99911 11.76726h6.16798l-7.65529-12.64215c4.50568-1.44357 6.7804-4.37445 6.7804-8.66141 0-5.99299-4.15573-8.96761-12.55467-8.96761h-10.01748v30.27117zm17.06034-21.08483c0 4.06823-4.24321 4.37444-8.96762 4.37444h-2.71215v-8.61766h4.06823c4.06824 0 7.61154 0.52494 7.61154 4.24322z"/>
   <path style="fill:#FFFFFF" d="m172.41182 171.67977c-5.16185 0-6.34295-2.23097-6.56167-4.94313h14.43568v-2.05599c0-6.86788-3.23709-10.7174-9.5363-10.7174-6.25546 0-10.32369 4.89938-10.32369 10.97987 0 6.82413 4.19947 10.97986 11.28607 10.97986 2.79965 0 5.5118-0.48119 8.09273-1.31233l-1.04987-4.0245c-1.92476 0.74366-4.02449 1.09362-6.34295 1.09362zm-6.51792-8.66141c0.26246-2.53718 1.35607-4.89938 4.94312-4.89938 2.62467 0 4.06824 1.53105 4.06824 4.89938h-9.01136z"/>
   <path style="fill:#FFFFFF" d="m196.17805 153.96325c-2.7559 0-4.98687 1.22485-6.82413 1.83727l-0.78741-1.35608h-3.76202v21.04109h5.38057v-15.8355c1.61855-0.69991 2.7559-1.1811 4.54943-1.1811 2.44969 0 3.41207 1.88102 3.41207 4.24322v12.77338h5.38057v-11.89849c0-1.26859-0.13124-2.58093-0.3937-3.80577 1.74977-0.7874 2.93088-1.31234 4.94312-1.31234 2.44969 0 3.28084 1.88102 3.28084 4.24322v12.77338h5.38057v-12.11722c0-5.64303-1.35608-9.40506-7.26159-9.40506-2.27471 0-4.89938 0.74366-7.78651 2.18723-1.26859-1.44357-3.10586-2.18723-5.51181-2.18723z"/>
   <path style="fill:#FFFFFF" d="m224.98038 151.90726c1.70603 0 3.23709-1.53105 3.23709-3.23709 0-1.70603-1.53106-3.23709-3.23709-3.23709s-3.23709 1.53106-3.23709 3.23709c0 1.70604 1.53106 3.23709 3.23709 3.23709zm-2.62467 2.53718v21.04109h5.24934v-21.04109h-5.24934z"/>
   <path style="fill:#FFFFFF" d="m230.79429 154.44444 7.48031 10.67365-7.13035 10.36744h5.77427l4.50568-6.82413 4.59317 6.82413h5.77427l-7.34907-10.36744 7.61154-10.67365h-5.94925l-4.63691 7.21784-4.85564-7.21784h-5.81802z"/>
  </g>
  <ellipse style="opacity:.6;filter:url(#filter4183);fill:#333333" cx="354.333" cy="374.829" rx="124.736" ry="124.964" transform="matrix(.19755472 0 0 .19755473 189.56602 85.950695)"/>
  <ellipse style="fill:#B8174C;fill-opacity:.99607843" cx="259.566" cy="160" rx="23.975" ry="24.019"/>
  <g style="opacity:.3" transform="matrix(.27415509 0 0 .27415509 246.37788 145.48254)">
   <path d="m86.068 0c-24.602 0-29.217 35.041-15.377 35.041 13.838 0 39.98-35.041 15.377-35.041z"/>
   <path d="m45.217 30.699c7.369 0.45 15.454-28.122 1.604-26.325-13.845 1.797-8.976 25.875-1.604 26.325z"/>
   <path d="m11.445 48.453c5.241-2.307 0.675-24.872-8.237-18.718-8.908 6.155 2.996 21.024 8.237 18.718z"/>
   <path d="m26.212 36.642c6.239-1.272 6.581-26.864-4.545-22.273-11.128 4.592-1.689 23.547 4.545 22.273z"/>
   <path d="m58.791 93.913c1.107 8.454-6.202 12.629-13.36 7.179-22.787-17.349 37.729-26.004 33.74-49.706-3.311-19.674-63.676-13.617-70.55 17.167-4.653 20.821 19.153 49.707 43.993 49.707 12.22 0 26.315-11.034 28.952-25.012 2.014-10.659-23.699-6.388-22.775 0.665z"/>
  </g>
  <g transform="matrix(1.0544741,0,0,1.0544741,-15.178198,-9.4526573)">
   <path style="opacity:.2;fill:url(#linearGradient4150-5)" d="m245.08598 143.87685a22.752357 22.752357 0 0 0 -7.28719 16.66181 22.752357 22.752357 0 0 0 22.75222 22.75222 22.752357 22.752357 0 0 0 16.87882 -7.53257l-32.34385-31.88146z"/>
   <path style="opacity:.2;fill:url(#linearGradient4156-7)" d="m275.72262 143.61585-31.87625 32.33865a22.752357 22.752357 0 0 0 16.70464 7.33638 22.752357 22.752357 0 0 0 22.75221 -22.75222 22.752357 22.752357 0 0 0 -7.5806 -16.92281z"/>
  </g>
  <g style="fill:#FFFFFF" transform="matrix(.27415509 0 0 .27415509 246.37788 143.78922)">
   <g style="fill:#FFFFFF">
    <path style="fill:#FFFFFF" d="m86.068 0c-24.602 0-29.217 35.041-15.377 35.041 13.838 0 39.98-35.041 15.377-35.041z"/>
    <path style="fill:#FFFFFF" d="m45.217 30.699c7.369 0.45 15.454-28.122 1.604-26.325-13.845 1.797-8.976 25.875-1.604 26.325z"/>
    <path style="fill:#FFFFFF" d="m11.445 48.453c5.241-2.307 0.675-24.872-8.237-18.718-8.908 6.155 2.996 21.024 8.237 18.718z"/>
    <path style="fill:#FFFFFF" d="m26.212 36.642c6.239-1.272 6.581-26.864-4.545-22.273-11.128 4.592-1.689 23.547 4.545 22.273z"/>
    <path style="fill:#FFFFFF" d="m58.791 93.913c1.107 8.454-6.202 12.629-13.36 7.179-22.787-17.349 37.729-26.004 33.74-49.706-3.311-19.674-63.676-13.617-70.55 17.167-4.653 20.821 19.153 49.707 43.993 49.707 12.22 0 26.315-11.034 28.952-25.012 2.014-10.659-23.699-6.388-22.775 0.665z"/>
   </g>
  </g>
 </g>
</svg>
