<svg xmlns="http://www.w3.org/2000/svg" width="96" height="42" version="1.1" viewBox="0 0 96 42">
 <g transform="matrix(0.9,0,0,0.9,150.924,41.637)">
  <rect width="100" height="40" x="64.36" y="-42.93" rx="22" ry="22" transform="scale(-1,1)" style="fill:#ffffff"/>
  <circle cx="144.362" cy="-22.927" r="18" transform="scale(-1,1)" style="fill:#120E29"/>
  <path d="m -90.356753,-28.927069 h 1.5 c 0.02,-1.8e-4 0.032,-7e-4 0.046,0 0.3824,0.016 0.7648,0.1928 1.0312,0.46874 l 3.422,3.42188 3.4686,-3.42188 c 0.3986,-0.34574 0.67,-0.45824 1.0314,-0.46874 h 1.5 v 1.5 c 0,0.4297 -0.052,0.82596 -0.375,1.125 l -3.422,3.42186 3.375,3.375 c 0.2824,0.28226 0.422,0.68018 0.422,1.07814 v 1.5 h -1.5 c -0.398,-2e-5 -0.796,-0.1396 -1.0782,-0.42188 l -3.4218,-3.42188 -3.422,3.42188 c -0.2822,0.28228 -0.6802,0.42188 -1.078,0.42188 h -1.5 v -1.5 c 0,-0.39794 0.14,-0.79588 0.4218,-1.07814 l 3.4218,-3.375 -3.4218,-3.42186 c -0.3162,-0.29196 -0.4548,-0.70388 -0.4218,-1.125 v -1.5 z" style="fill:#120E29"/>
 </g>
</svg>
