<svg xmlns="http://www.w3.org/2000/svg" width="42" height="42" version="1.1">
 <path d="m 10.960938,2.5292969 c -4.6188829,0 -8.4316411,3.8127582 -8.4316411,8.4316411 v 20.078124 c 0,4.618883 3.8127582,8.431641 8.4316411,8.431641 h 20.078124 c 4.618883,0 8.431641,-3.812758 8.431641,-8.431641 V 10.960938 c 0,-4.6188829 -3.812758,-8.4316411 -8.431641,-8.4316411 z m 0,6 h 20.078124 c 1.398666,0 2.431641,1.0329748 2.431641,2.4316411 v 20.078124 c 0,1.398666 -1.032975,2.431641 -2.431641,2.431641 H 10.960938 c -1.3986663,0 -2.4316411,-1.032975 -2.4316411,-2.431641 V 10.960938 c 0,-1.3986663 1.0329748,-2.4316411 2.4316411,-2.4316411 z"/>
 <g transform="translate(0,-6)" style="fill:#367bf0">
  <path d="m 37.259446,10.39762 c -0.574247,0.124095 -1.103439,0.447397 -1.475757,0.901852 L 19.304399,30.156369 13.40137,24.25334 c -0.987323,-0.987459 -2.784113,-0.987511 -3.771498,-1.31e-4 -0.9873853,0.987406 -0.9873302,2.784183 1.18e-4,3.771511 l 7.870706,7.870705 2.049663,1.967677 1.803703,-2.13165 18.364982,-20.988547 c 1.488671,-1.620657 -0.30388,-4.7874876 -2.459598,-4.345285 z" style="fill:#367bf0"/>
 </g>
</svg>
