<svg width="64" height="64" version="1.0" viewBox="0 0 46.55 46.55" xmlns="http://www.w3.org/2000/svg"><path d="m16.726 11.365 0.54102 0.0332-0.26953-0.0332zm0 0c-3.7468 0-6.8164 3.083-6.8164 6.8203 2.705e-4 1.7954 0.70841 3.5368 1.9941 4.8223h2e-3l1.7246 1.7227-1.7266 1.7266c-1.2851 1.2851-1.9939 3.0244-1.9941 4.8203 0 3.7373 3.0791 6.8164 6.8164 6.8164 1.7954-2.7e-4 3.5368-0.70842 4.8223-1.9941l1.7266-1.7266 1.4961 1.4961 0.01367 0.01758 0.21094 0.21289c1.2854 1.2857 3.0267 1.9939 4.8223 1.9941 3.7373 0 6.8223-3.0696 6.8223-6.8164-2.82e-4 -1.8141-0.72333-3.5449-1.998-4.8203l-1.7247-1.7247 1.9219-1.9199 0.19531-0.25781-0.39453 0.45312c1.2754-1.2756 1.9997-3.0071 2-4.8223 0-3.7468-3.0755-6.8203-6.8223-6.8203-1.815 2.77e-4 -3.5467 0.72215-4.8223 1.998v2e-3l-1.7227 1.7246-1.709-1.709-0.01563-0.01758c-1.275-1.2748-3.0064-1.9978-4.8223-1.998z" style="color-rendering:auto;color:#000000;dominant-baseline:auto;fill-rule:evenodd;font-feature-settings:normal;font-variant-alternates:normal;font-variant-caps:normal;font-variant-ligatures:normal;font-variant-numeric:normal;font-variant-position:normal;image-rendering:auto;isolation:auto;mix-blend-mode:normal;opacity:.5;shape-padding:0;shape-rendering:auto;solid-color:#000000;text-decoration-color:#000000;text-decoration-line:none;text-decoration-style:solid;text-indent:0;text-orientation:mixed;text-transform:none;white-space:normal"/><path d="m16.726 14.274c-1.346 0-2.4524 1.1107-2.4524 2.4568 9.8e-5 0.65069 0.25621 1.2759 0.71638 1.736l4.8125 4.8081-4.7949 4.7949-0.01757 0.01755c-0.46006 0.46006-0.71628 1.0853-0.71638 1.736 0 1.346 1.1063 2.4524 2.4524 2.4524 0.65069-9.6e-5 1.2759-0.25621 1.736-0.71638l4.8125-4.8125 4.7949 4.7949 0.01328 0.01755c0.46004 0.46013 1.0853 0.71628 1.736 0.71638 1.346 0 2.4568-1.1063 2.4568-2.4524-1.01e-4 -0.65069-0.2606-1.2759-0.72077-1.736l-4.8081-4.8125 4.7949-4.7905 0.01328-0.01755c0.45994-0.46001 0.72048-1.0853 0.72059-1.736 0-1.346-1.1107-2.4568-2.4568-2.4568-0.6507 1e-4 -1.2759 0.2606-1.736 0.72078l-4.8081 4.8125-4.7949-4.7949-0.01757-0.01755c-0.46009-0.46001-1.0853-0.7207-1.736-0.7208z" style="fill-rule:evenodd;stroke-width:8.7281;stroke:#fff"/><path d="m16.728 14.27c-1.346 0-2.4524 1.1107-2.4524 2.4568 9.8e-5 0.65069 0.25621 1.2759 0.71638 1.736l4.8125 4.8081-4.7949 4.7949-0.01757 0.01755c-0.46006 0.46006-0.71628 1.0853-0.71638 1.736 0 1.346 1.1063 2.4524 2.4524 2.4524 0.65069-9.7e-5 1.2759-0.25621 1.736-0.71638l4.8125-4.8125 4.7949 4.7949 0.01328 0.01755c0.46003 0.46013 1.0853 0.71628 1.736 0.71638 1.346 0 2.4568-1.1063 2.4568-2.4524-1.01e-4 -0.65069-0.2606-1.2759-0.72077-1.736l-4.8081-4.8125 4.7949-4.7905 0.01328-0.01755c0.45994-0.46001 0.72048-1.0853 0.72059-1.736 0-1.346-1.1107-2.4568-2.4568-2.4568-0.6507 9.9e-5 -1.2759 0.2606-1.736 0.72078l-4.8081 4.8125-4.7949-4.7949-0.01757-0.01755c-0.46009-0.46001-1.0853-0.7207-1.736-0.7208z" style="fill-rule:evenodd"/></svg>
