<svg xmlns="http://www.w3.org/2000/svg" width="64" height="64" x="0" y="0" version="1.0" viewBox="0 0 46.55 46.55" xml:space="preserve">
 <g transform="matrix(2.2502198,0,0,2.2502198,-2.9093731,-55.278124)">
  <path d="m 2.9090888,34.909091 c 0,4.81994 3.9073331,8.727271 8.7272712,8.727271 4.81994,0 8.72727,-3.907331 8.72727,-8.727271 0,-4.819937 -3.90733,-8.727271 -8.72727,-8.727271 -4.8199381,0 -8.7272712,3.907334 -8.7272712,8.727271 z" style="fill:#ffffff"/>
  <g style="fill:none" transform="translate(-0.72727464,24.727272)">
   <path d="m 3.6363636,10.181818 c 0,4.81994 3.9073336,8.727272 8.7272734,8.727272 4.819941,0 8.727272,-3.907332 8.727272,-8.727272 0,-4.8199381 -3.907331,-8.7272726 -8.727272,-8.7272726 -4.8199398,0 -8.7272734,3.9073345 -8.7272734,8.7272726 z" style="opacity:0.8;fill:none"/>
   <path d="m 9.4545455,13.093068 h 0.7272725 c 0.200829,0 0.391114,-0.07293 0.522727,-0.204545 l 1.659092,-1.659091 1.65909,1.659091 c 0.131616,0.13161 0.321899,0.204545 0.522728,0.204545 h 0.727272 v -0.727272 c 0,-0.200831 -0.07293,-0.391117 -0.204545,-0.522728 l -1.659091,-1.65909 1.659091,-1.6590912 c 0.131614,-0.13161 0.204545,-0.321897 0.204545,-0.522727 V 7.2748872 h -0.727272 c -0.200829,0 -0.391112,0.07293 -0.522728,0.2045455 l -1.65909,1.659091 -1.659092,-1.659091 C 10.572932,7.3478225 10.38088,7.248304 10.181818,7.2748872 H 9.4545455 v 0.7272726 c 0,0.20083 0.07293,0.391117 0.2045455,0.522727 l 1.659091,1.6590912 -1.659091,1.65909 c -0.1316153,0.131611 -0.2045455,0.321897 -0.2045455,0.522728 z" style="fill:none"/>
  </g>
  <path d="m 8.7272676,31.272743 c -0.401662,0 -0.727273,0.32561 -0.727273,0.727272 2.9e-5,0.192874 0.07667,0.377837 0.213068,0.514204 l 2.3948864,2.394887 -2.3877844,2.387783 -0.0071,0.0071 c -0.136369,0.13637 -0.213011,0.321334 -0.21304,0.514207 0,0.401662 0.325611,0.727273 0.727273,0.727273 0.192873,-2.9e-5 0.377837,-0.07667 0.514204,-0.213068 l 2.3948854,-2.394887 2.387784,2.387785 0.0071,0.0071 c 0.136343,0.136372 0.321306,0.213014 0.51418,0.213043 0.401662,0 0.727273,-0.325611 0.727273,-0.727273 -3e-5,-0.192873 -0.07667,-0.377837 -0.213069,-0.514204 l -2.394886,-2.394886 2.387784,-2.387784 0.0071,-0.0071 c 0.136371,-0.136342 0.213013,-0.321306 0.213043,-0.51418 0,-0.401661 -0.325611,-0.727272 -0.727273,-0.727272 -0.192874,2.9e-5 -0.377837,0.07667 -0.514204,0.213068 l -2.394832,2.394916 -2.3877824,-2.387784 -0.0071,-0.0071 c -0.1364,-0.136369 -0.321364,-0.213011 -0.514237,-0.21304 z" style="fill:#000;fill-rule:evenodd"/>
  <path d="m 2.9275548,34.545453 c -0.00502,0.121565 -0.018466,0.240836 -0.018466,0.363636 0,4.81994 3.9073336,8.727272 8.7272722,8.727272 4.819939,0 8.727271,-3.907332 8.727271,-8.727272 0,-0.1228 -0.01344,-0.242071 -0.01847,-0.363636 -0.192131,4.649928 -4.011666,8.363635 -8.708805,8.363635 -4.6971385,0 -8.5166751,-3.713707 -8.7088063,-8.363635 z" style="fill:#000"/>
  <path d="m 11.636361,26.181817 c -4.8199383,0 -8.7272721,3.907335 -8.7272721,8.727272 0,0.1228 0.013443,0.24207 0.018466,0.363636 0.1921312,-4.649925 4.0116678,-8.363635 8.7088061,-8.363635 4.697139,0 8.516674,3.71371 8.708805,8.363635 0.005,-0.121566 0.01847,-0.240836 0.01847,-0.363636 0,-4.819937 -3.907332,-8.727272 -8.727271,-8.727272 z" style="opacity:0.3;fill:#ffffff"/>
 </g>
</svg>
