<svg version="1.1" viewBox="0 0 512 32" xmlns="http://www.w3.org/2000/svg" xmlns:xlink="http://www.w3.org/1999/xlink"><defs><linearGradient id="cg"><stop style="stop-color:#fff;stop-opacity:0" offset="0"/><stop style="stop-color:#fff;stop-opacity:.15429" offset=".31861"/><stop style="stop-color:#fff;stop-opacity:.33714" offset=".5427"/><stop style="stop-color:#fff" offset="1"/></linearGradient><linearGradient id="ch"><stop style="stop-color:#bebebe;stop-opacity:0" offset="0"/><stop style="stop-color:#fff;stop-opacity:0" offset=".31861"/><stop style="stop-color:#fff;stop-opacity:.42857" offset=".75052"/><stop style="stop-color:#fff" offset="1"/></linearGradient><radialGradient id="ad" cx="-.067823" cy="188.52" r="27.33" gradientTransform="matrix(2.2295 -1.2865 1.2087 2.094 -228.9 -208.09)" gradientUnits="userSpaceOnUse" xlink:href="#cg"/><radialGradient id="ac" cx=".053942" cy="189.15" r="27.33" gradientTransform="matrix(1.1252 -.60471 .56814 1.0569 -107.67 -11.948)" gradientUnits="userSpaceOnUse" xlink:href="#ch"/></defs><g transform="translate(0,-16)" style="display:none"><rect width="24" height="24" style="color:#000000;display:inline"/><rect y="24" width="24" height="24" style="color:#000000;display:inline"/><rect x="24" width="24" height="24" style="color:#000000;display:inline"/><rect x="24" y="24" width="24" height="24" style="color:#000000;display:inline"/><rect x="48" width="24" height="24" style="color:#000000;display:inline"/><rect x="48" y="24" width="24" height="24" style="color:#000000;display:inline"/><rect x="72" width="24" height="24" style="color:#000000;display:inline"/><rect x="72" y="24" width="24" height="24" style="color:#000000;display:inline"/></g><g transform="translate(0,-16)"><g id="af" transform="matrix(.29522 0 0 .29524 149.04 -388.51)"><path transform="matrix(-.16397 .61157 -.61162 -.16378 -372.32 1442.5)" d="m-3.4437 184.72a22.981 22.981 0 0 1-25.905 17.425 22.981 22.981 0 0 1-19.373-24.482 22.981 22.981 0 0 1 22.912-21.206" style="fill:none;stroke-linecap:round;stroke-width:17.832;stroke:url(#ad)"/><path transform="matrix(-.63301 .014384 -.014584 -.633 -491.4 1511)" d="m-3.4437 184.72a22.981 22.981 0 0 1-25.905 17.425 22.981 22.981 0 0 1-19.373-24.482 22.981 22.981 0 0 1 22.912-21.206" style="fill:none;stroke-width:17.832;stroke:url(#ac)"/></g><use transform="matrix(.99452 .10453 -.10453 .99452 48.943 -180.55)" width="100%" height="100%" xlink:href="#g10450-5"/><use transform="matrix(.97815 .20791 -.20791 .97815 70.554 -185.8)" width="100%" height="100%" xlink:href="#use12000"/><use transform="matrix(.95106 .30902 -.30902 .95106 146.77 -177.22)" width="100%" height="100%" xlink:href="#g10450-5"/><use transform="matrix(.91355 .40674 -.40674 .91355 169.61 -183.68)" width="100%" height="100%" xlink:href="#use12000"/><use transform="matrix(.86603 .5 -.5 .86603 194.49 -193.26)" width="100%" height="100%" xlink:href="#use12002"/><use transform="matrix(.80902 .58779 -.58779 .80902 289.93 -156.19)" width="100%" height="100%" xlink:href="#g10450-5"/><use transform="matrix(.74314 .66913 -.66913 .74314 315.03 -163.93)" width="100%" height="100%" xlink:href="#use12000"/><use transform="matrix(.66913 .74314 -.74314 .66913 343.02 -174.01)" width="100%" height="100%" xlink:href="#use12002"/><use id="cf" transform="matrix(.58779 .80902 -.80902 .58779 374.34 -185.87)" width="100%" height="100%" xlink:href="#use12008"/><use id="ce" transform="matrix(.99452 .10453 -.10453 .99452 31.624 -28.946)" width="100%" height="100%" xlink:href="#cf"/><use id="cd" transform="matrix(.99452 .10453 -.10453 .99452 31.778 -31.872)" width="100%" height="100%" xlink:href="#ce"/><use id="cc" transform="matrix(.99452 .10453 -.10453 .99452 31.932 -34.8)" width="100%" height="100%" xlink:href="#cd"/><use id="cb" transform="matrix(.99452 .10453 -.10453 .99452 32.085 -37.729)" width="100%" height="100%" xlink:href="#cc"/><use id="ca" transform="matrix(.99452 .10453 -.10453 .99452 32.238 -40.661)" width="100%" height="100%" xlink:href="#cb"/><use id="bz" transform="matrix(.99452 .10453 -.10453 .99452 32.391 -43.586)" width="100%" height="100%" xlink:href="#ca"/><use id="by" transform="matrix(.99452 .10453 -.10453 .99452 32.543 -46.511)" width="100%" height="100%" xlink:href="#bz"/><use id="bx" transform="matrix(.99452 .10453 -.10453 .99452 32.696 -49.437)" width="100%" height="100%" xlink:href="#by"/><use id="bw" transform="matrix(.99452 .10453 -.10453 .99452 32.849 -52.364)" width="100%" height="100%" xlink:href="#bx"/><use id="bv" transform="matrix(.99452 .10453 -.10453 .99452 33.002 -55.29)" width="100%" height="100%" xlink:href="#bw"/><use id="bu" transform="matrix(.99452 .10453 -.10453 .99452 33.155 -58.217)" width="100%" height="100%" xlink:href="#bv"/><use id="bt" transform="matrix(.99452 .10453 -.10453 .99452 33.308 -61.143)" width="100%" height="100%" xlink:href="#bu"/><use id="bs" transform="matrix(.99452 .10453 -.10453 .99452 33.461 -64.07)" width="100%" height="100%" xlink:href="#bt"/><use id="br" transform="matrix(.99452 .10453 -.10453 .99452 33.615 -66.996)" width="100%" height="100%" xlink:href="#bs"/><use id="bq" transform="matrix(.99452 .10453 -.10453 .99452 33.768 -69.922)" width="100%" height="100%" xlink:href="#br"/><use id="bp" transform="matrix(.99452 .10453 -.10453 .99452 33.921 -72.849)" width="100%" height="100%" xlink:href="#bq"/><use id="bo" transform="matrix(.99452 .10453 -.10453 .99452 34.074 -75.775)" width="100%" height="100%" xlink:href="#bp"/><use id="bn" transform="matrix(.99452 .10453 -.10453 .99452 34.228 -78.701)" width="100%" height="100%" xlink:href="#bo"/><use id="bm" transform="matrix(.99452 .10453 -.10453 .99452 34.384 -81.628)" width="100%" height="100%" xlink:href="#bn"/><use id="bl" transform="matrix(.99452 .10453 -.10453 .99452 34.543 -84.555)" width="100%" height="100%" xlink:href="#bm"/><use id="bk" transform="matrix(.99452 .10453 -.10453 .99452 34.694 -87.483)" width="100%" height="100%" xlink:href="#bl"/><use id="bj" transform="matrix(.99452 .10453 -.10453 .99452 34.846 -90.41)" width="100%" height="100%" xlink:href="#bk"/><use id="bi" transform="matrix(.99452 .10453 -.10453 .99452 34.999 -93.338)" width="100%" height="100%" xlink:href="#bj"/><use id="bh" transform="matrix(.99452 .10453 -.10453 .99452 35.152 -96.265)" width="100%" height="100%" xlink:href="#bi"/><use id="bg" transform="matrix(.99452 .10453 -.10453 .99452 35.305 -99.192)" width="100%" height="100%" xlink:href="#bh"/><use id="bf" transform="matrix(.99452 .10453 -.10453 .99452 35.458 -102.12)" width="100%" height="100%" xlink:href="#bg"/><use id="be" transform="matrix(.99452 .10453 -.10453 .99452 35.611 -105.05)" width="100%" height="100%" xlink:href="#bf"/><use id="bd" transform="matrix(.99452 .10453 -.10453 .99452 35.764 -107.97)" width="100%" height="100%" xlink:href="#be"/><use id="bc" transform="matrix(.99452 .10453 -.10453 .99452 35.917 -110.9)" width="100%" height="100%" xlink:href="#bd"/><use id="bb" transform="matrix(.99452 .10453 -.10453 .99452 36.07 -113.83)" width="100%" height="100%" xlink:href="#bc"/><use id="ba" transform="matrix(.99452 .10453 -.10453 .99452 36.223 -116.75)" width="100%" height="100%" xlink:href="#bb"/><use id="az" transform="matrix(.99452 .10453 -.10453 .99452 36.376 -119.68)" width="100%" height="100%" xlink:href="#ba"/><use id="ay" transform="matrix(.99452 .10453 -.10453 .99452 36.529 -122.61)" width="100%" height="100%" xlink:href="#az"/><use id="ax" transform="matrix(.99452 .10453 -.10453 .99452 36.682 -125.53)" width="100%" height="100%" xlink:href="#ay"/><use id="aw" transform="matrix(.99452 .10453 -.10453 .99452 36.836 -128.45)" width="100%" height="100%" xlink:href="#ax"/><use id="av" transform="matrix(.99452 .10453 -.10453 .99452 36.99 -131.38)" width="100%" height="100%" xlink:href="#aw"/><use id="au" transform="matrix(.99452 .10453 -.10453 .99452 37.144 -134.31)" width="100%" height="100%" xlink:href="#av"/><use id="at" transform="matrix(.99452 .10453 -.10453 .99452 37.298 -137.24)" width="100%" height="100%" xlink:href="#au"/><use id="as" transform="matrix(.99452 .10453 -.10453 .99452 37.452 -140.16)" width="100%" height="100%" xlink:href="#at"/><use id="ar" transform="matrix(.99452 .10453 -.10453 .99452 37.606 -143.09)" width="100%" height="100%" xlink:href="#as"/><use id="aq" transform="matrix(.99452 .10453 -.10453 .99452 37.76 -146.02)" width="100%" height="100%" xlink:href="#ar"/><use id="ap" transform="matrix(.99452 .10453 -.10453 .99452 37.913 -148.95)" width="100%" height="100%" xlink:href="#aq"/><use id="ao" transform="matrix(.99452 .10453 -.10453 .99452 38.067 -151.87)" width="100%" height="100%" xlink:href="#ap"/><use id="an" transform="matrix(.99452 .10453 -.10453 .99452 38.221 -154.8)" width="100%" height="100%" xlink:href="#ao"/><use id="am" transform="matrix(.99452 .10453 -.10453 .99452 38.374 -157.73)" width="100%" height="100%" xlink:href="#an"/><use id="al" transform="matrix(.99452 .10453 -.10453 .99452 38.528 -160.66)" width="100%" height="100%" xlink:href="#am"/><use id="ak" transform="matrix(.99452 .10453 -.10453 .99452 38.681 -163.58)" width="100%" height="100%" xlink:href="#al"/><use id="aj" transform="matrix(.99452 .10453 -.10453 .99452 38.834 -166.51)" width="100%" height="100%" xlink:href="#ak"/><use id="ai" transform="matrix(.99452 .10453 -.10453 .99452 38.984 -169.44)" width="100%" height="100%" xlink:href="#aj"/><use transform="matrix(.99452 .10453 -.10453 .99452 39.133 -172.36)" width="100%" height="100%" xlink:href="#ai"/><use id="ab" transform="matrix(.99487 .10116 -.10116 .99487 18.463 -.68603)" width="100%" height="100%" xlink:href="#af"/><use id="aa" transform="matrix(.99487 .10116 -.10116 .99487 18.546 -2.3041)" width="100%" height="100%" xlink:href="#ab"/><use id="z" transform="matrix(.99487 .10116 -.10116 .99487 18.628 -3.9222)" width="100%" height="100%" xlink:href="#aa"/><use id="y" transform="matrix(.99487 .10116 -.10116 .99487 18.71 -5.5404)" width="100%" height="100%" xlink:href="#z"/><use id="x" transform="matrix(.99487 .10116 -.10116 .99487 18.793 -7.1586)" width="100%" height="100%" xlink:href="#y"/><use id="w" transform="matrix(.99487 .10116 -.10116 .99487 18.875 -8.7768)" width="100%" height="100%" xlink:href="#x"/><use id="v" transform="matrix(.99487 .10116 -.10116 .99487 18.958 -10.395)" width="100%" height="100%" xlink:href="#w"/><use id="u" transform="matrix(.99487 .10116 -.10116 .99487 19.04 -12.013)" width="100%" height="100%" xlink:href="#v"/><use id="t" transform="matrix(.99487 .10116 -.10116 .99487 19.123 -13.632)" width="100%" height="100%" xlink:href="#u"/><use id="s" transform="matrix(.99487 .10116 -.10116 .99487 19.205 -15.25)" width="100%" height="100%" xlink:href="#t"/><use id="r" transform="matrix(.99487 .10116 -.10116 .99487 19.288 -16.869)" width="100%" height="100%" xlink:href="#s"/><use id="q" transform="matrix(.99487 .10116 -.10116 .99487 19.37 -18.487)" width="100%" height="100%" xlink:href="#r"/><use id="p" transform="matrix(.99487 .10116 -.10116 .99487 19.452 -20.108)" width="100%" height="100%" xlink:href="#q"/><use id="o" transform="matrix(.99487 .10116 -.10116 .99487 19.535 -21.731)" width="100%" height="100%" xlink:href="#p"/><use id="ah" transform="matrix(.99487 .10116 -.10116 .99487 19.616 -23.351)" width="100%" height="100%" xlink:href="#o"/><use transform="matrix(-.050523 .99872 -.99872 -.050523 288.33 17.192)" width="100%" height="100%" xlink:href="#af"/><use transform="matrix(-.050523 .99872 -.99872 -.050523 305.14 1.2121)" width="100%" height="100%" xlink:href="#ab"/><use transform="matrix(-.050523 .99872 -.99872 -.050523 321.95 -14.767)" width="100%" height="100%" xlink:href="#aa"/><use transform="matrix(-.050523 .99872 -.99872 -.050523 338.75 -30.747)" width="100%" height="100%" xlink:href="#z"/><use transform="matrix(-.050523 .99872 -.99872 -.050523 355.56 -46.726)" width="100%" height="100%" xlink:href="#y"/><use transform="matrix(-.050523 .99872 -.99872 -.050523 372.37 -62.705)" width="100%" height="100%" xlink:href="#x"/><use transform="matrix(-.050523 .99872 -.99872 -.050523 389.18 -78.685)" width="100%" height="100%" xlink:href="#w"/><use transform="matrix(-.050523 .99872 -.99872 -.050523 405.99 -94.664)" width="100%" height="100%" xlink:href="#v"/><use transform="matrix(-.050523 .99872 -.99872 -.050523 422.8 -110.64)" width="100%" height="100%" xlink:href="#u"/><use transform="matrix(-.050523 .99872 -.99872 -.050523 439.6 -126.62)" width="100%" height="100%" xlink:href="#t"/><use transform="matrix(-.050523 .99872 -.99872 -.050523 456.41 -142.6)" width="100%" height="100%" xlink:href="#s"/><use transform="matrix(-.050523 .99872 -.99872 -.050523 473.22 -158.58)" width="100%" height="100%" xlink:href="#r"/><use transform="matrix(-.050523 .99872 -.99872 -.050523 490.03 -174.56)" width="100%" height="100%" xlink:href="#q"/><use transform="matrix(-.050523 .99872 -.99872 -.050523 506.84 -190.54)" width="100%" height="100%" xlink:href="#p"/><use transform="matrix(-.050523 .99872 -.99872 -.050523 523.65 -206.52)" width="100%" height="100%" xlink:href="#o"/><use transform="matrix(-.050523 .99872 -.99872 -.050523 540.46 -222.5)" width="100%" height="100%" xlink:href="#ah"/><g id="ae" transform="matrix(-.29522 7.2137e-5 -7.2125e-5 -.29524 -132.95 452.48)"><path transform="matrix(-.16397 .61157 -.61162 -.16378 -372.32 1442.5)" d="m-3.4437 184.72a22.981 22.981 0 0 1-25.905 17.425 22.981 22.981 0 0 1-19.373-24.482 22.981 22.981 0 0 1 22.912-21.206" style="fill:none;stroke-linecap:round;stroke-width:17.832;stroke:url(#ad)"/><path transform="matrix(-.63301 .014384 -.014584 -.633 -491.4 1511)" d="m-3.4437 184.72a22.981 22.981 0 0 1-25.905 17.425 22.981 22.981 0 0 1-19.373-24.482 22.981 22.981 0 0 1 22.912-21.206" style="fill:none;stroke-width:17.832;stroke:url(#ac)"/></g><use id="n" transform="matrix(.99487 .10116 -.10116 .99487 20.082 -.60395)" width="100%" height="100%" xlink:href="#ae"/><use id="m" transform="matrix(.99487 .10116 -.10116 .99487 20.164 -2.222)" width="100%" height="100%" xlink:href="#n"/><use id="l" transform="matrix(.99487 .10116 -.10116 .99487 20.246 -3.8402)" width="100%" height="100%" xlink:href="#m"/><use id="k" transform="matrix(.99487 .10116 -.10116 .99487 20.329 -5.4583)" width="100%" height="100%" xlink:href="#l"/><use id="j" transform="matrix(.99487 .10116 -.10116 .99487 20.411 -7.0765)" width="100%" height="100%" xlink:href="#k"/><use id="i" transform="matrix(.99487 .10116 -.10116 .99487 20.494 -8.6947)" width="100%" height="100%" xlink:href="#j"/><use id="h" transform="matrix(.99487 .10116 -.10116 .99487 20.576 -10.313)" width="100%" height="100%" xlink:href="#i"/><use id="g" transform="matrix(.99487 .10116 -.10116 .99487 20.659 -11.931)" width="100%" height="100%" xlink:href="#h"/><use id="f" transform="matrix(.99487 .10116 -.10116 .99487 20.741 -13.55)" width="100%" height="100%" xlink:href="#g"/><use id="e" transform="matrix(.99487 .10116 -.10116 .99487 20.824 -15.168)" width="100%" height="100%" xlink:href="#f"/><use id="d" transform="matrix(.99487 .10116 -.10116 .99487 20.906 -16.787)" width="100%" height="100%" xlink:href="#e"/><use id="c" transform="matrix(.99487 .10116 -.10116 .99487 20.989 -18.405)" width="100%" height="100%" xlink:href="#d"/><use id="b" transform="matrix(.99487 .10116 -.10116 .99487 21.071 -20.026)" width="100%" height="100%" xlink:href="#c"/><use id="a" transform="matrix(.99487 .10116 -.10116 .99487 21.153 -21.649)" width="100%" height="100%" xlink:href="#b"/><use id="ag" transform="matrix(.99487 .10116 -.10116 .99487 21.235 -23.269)" width="100%" height="100%" xlink:href="#a"/><use transform="matrix(-.050523 .99872 -.99872 -.050523 304.31 34)" width="100%" height="100%" xlink:href="#ae"/><use transform="matrix(-.050523 .99872 -.99872 -.050523 321.12 18.02)" width="100%" height="100%" xlink:href="#n"/><use transform="matrix(-.050523 .99872 -.99872 -.050523 337.93 2.0411)" width="100%" height="100%" xlink:href="#m"/><use transform="matrix(-.050523 .99872 -.99872 -.050523 354.73 -13.938)" width="100%" height="100%" xlink:href="#l"/><use transform="matrix(-.050523 .99872 -.99872 -.050523 371.54 -29.918)" width="100%" height="100%" xlink:href="#k"/><use transform="matrix(-.050523 .99872 -.99872 -.050523 388.35 -45.897)" width="100%" height="100%" xlink:href="#j"/><use transform="matrix(-.050523 .99872 -.99872 -.050523 405.16 -61.876)" width="100%" height="100%" xlink:href="#i"/><use transform="matrix(-.050523 .99872 -.99872 -.050523 421.97 -77.856)" width="100%" height="100%" xlink:href="#h"/><use transform="matrix(-.050523 .99872 -.99872 -.050523 438.78 -93.835)" width="100%" height="100%" xlink:href="#g"/><use transform="matrix(-.050523 .99872 -.99872 -.050523 455.58 -109.81)" width="100%" height="100%" xlink:href="#f"/><use transform="matrix(-.050523 .99872 -.99872 -.050523 472.39 -125.79)" width="100%" height="100%" xlink:href="#e"/><use transform="matrix(-.050523 .99872 -.99872 -.050523 489.2 -141.77)" width="100%" height="100%" xlink:href="#d"/><use transform="matrix(-.050523 .99872 -.99872 -.050523 506.01 -157.75)" width="100%" height="100%" xlink:href="#c"/><use transform="matrix(-.050523 .99872 -.99872 -.050523 522.82 -173.73)" width="100%" height="100%" xlink:href="#b"/><use transform="matrix(-.050523 .99872 -.99872 -.050523 539.63 -189.71)" width="100%" height="100%" xlink:href="#a"/><use transform="matrix(-.050523 .99872 -.99872 -.050523 556.44 -205.69)" width="100%" height="100%" xlink:href="#ag"/></g></svg>
