<svg version="1.1" viewBox="0 0 46 22" xmlns="http://www.w3.org/2000/svg"><path d="m10.998 0.035156c-6.0506 0-10.955 4.7133-10.955 10.572v0.76562c0 5.859 4.9045 10.572 10.955 10.572h23.535c6.0506 0 10.955-4.7133 10.955-10.572v-0.76562c0-5.859-4.9045-10.572-10.955-10.572h-23.535z" color="#000000" color-rendering="auto" dominant-baseline="auto" fill="#ec0101" image-rendering="auto" shape-rendering="auto" solid-color="#000000" stop-color="#000000"/><path d="m10.998 0.035156c-6.0506 0-10.955 4.7133-10.955 10.572v0.76562c0 5.859 4.9045 10.572 10.955 10.572h23.385 0.15039 0.082031c1.4828 0 2.8931-0.29675 4.1816-0.82812 0.18702-0.077123 0.36721-0.16691 0.54883-0.25391 0.16075-0.075895 0.32427-0.14731 0.48047-0.23047 0.030139-0.016288 0.057923-0.036172 0.08789-0.052734 2.4559-1.337 4.3187-3.5597 5.127-6.2285 0.34021-1.0593 0.5293-2.1874 0.5293-3.3613 0-1.1739-0.18909-2.302-0.5293-3.3613-0.80821-2.6688-2.671-4.8916-5.127-6.2285-0.029967-0.016562-0.057751-0.036446-0.08789-0.052734-0.1562-0.083156-0.31972-0.15457-0.48047-0.23047-0.18161-0.086998-0.36181-0.17678-0.54883-0.25391-1.2886-0.53138-2.6989-0.82812-4.1816-0.82812h-0.082031-0.15039-23.385zm0 1h18.824c-3.7737 1.728-6.3945 5.5254-6.3945 9.9551 0 4.4296 2.6208 8.2271 6.3945 9.9551h-18.824c-5.5335 0-9.9551-4.2704-9.9551-9.5723v-0.76562c-1e-7 -5.3019 4.4216-9.5723 9.9551-9.5723zm23.385 0h0.15039c1.3636 1e-7 2.6589 0.26224 3.8379 0.73242 0.017095 0.0068172 0.035688 0.010672 0.052734 0.017578 0.002664 0.001095 0.00515 0.0028091 0.007813 0.0039063 0.1463 0.05942 0.28518 0.13143 0.42773 0.19727 0.17176 0.080575 0.34558 0.15618 0.51172 0.24609 2.2201 1.2015 3.9187 3.2231 4.709 5.666 0.26097 0.85928 0.4082 1.7663 0.4082 2.709v0.76562c0 0.94271-0.14723 1.8497-0.4082 2.709-0.79027 2.4429-2.4889 4.4645-4.709 5.666-0.16614 0.089917-0.33996 0.16552-0.51172 0.24609-0.14255 0.065838-0.28143 0.13784-0.42773 0.19726-0.002712 0.001102-0.0051 0.002807-0.007813 0.003906-0.017059 0.007012-0.035627 0.010659-0.052734 0.017579-1.179 0.47018-2.4743 0.73242-3.8379 0.73242h-0.15039c-5.5237 0-9.9551-4.4314-9.9551-9.9551 0-5.5237 4.4314-9.9551 9.9551-9.9551z" color="#000000" color-rendering="auto" dominant-baseline="auto" image-rendering="auto" opacity=".5" shape-rendering="auto" solid-color="#000000" stop-color="#000000"/><path d="m34.383 1.0352c-5.5237 2e-7 -9.9551 4.4314-9.9551 9.9551 0 5.5237 4.4314 9.9551 9.9551 9.9551h0.23242c5.5237 0 9.9551-4.4314 9.9551-9.9551 0-5.5237-4.4314-9.9551-9.9551-9.9551h-0.23242z" color="#000000" color-rendering="auto" dominant-baseline="auto" fill="#fff" image-rendering="auto" shape-rendering="auto" solid-color="#000000" stop-color="#000000"/></svg>
