<svg width="64" height="64" version="1.0" viewBox="0 0 46.55 46.55" xmlns="http://www.w3.org/2000/svg">
 <path d="m13.822 8.4551c-3.7373 0-6.8223 3.0696-6.8223 6.8164v2e-3c2.817e-4 1.815 0.72408 3.5447 2 4.8203l4.6309 4.6347-4.8301 4.8281-0.19531 0.25781 0.39453-0.45312c-1.2754 1.2756-1.9997 3.0051-2 4.8203v2e-3c0 3.7468 3.0755 6.8203 6.8223 6.8203 1.815-2.76e-4 3.5467-0.72411 4.8223-2l4.6309-4.6348 4.6367 4.6367c1.275 1.2748 3.0044 1.9978 4.8203 1.998 3.7468 0 6.8164-3.083 6.8164-6.8203v-2e-3c-2.7e-4 -1.7954-0.70843-3.5349-1.9941-4.8203l-4.6348-4.6328 4.6348-4.6348c1.2851-1.2851 1.9939-3.0244 1.9941-4.8203v-2e-3c0-3.7373-3.0791-6.8164-6.8164-6.8164-1.7954 2.677e-4 -3.5368 0.71038-4.8223 1.9961l-4.6348 4.6348-4.4062-4.4062-0.01367-0.01758-0.21094-0.21094c-1.2854-1.2857-3.0267-1.9958-4.8223-1.996zm18.91 32.549h0.27148l0.26953-0.0332z" style="color-rendering:auto;color:#000000;dominant-baseline:auto;fill-rule:evenodd;font-feature-settings:normal;font-variant-alternates:normal;font-variant-caps:normal;font-variant-ligatures:normal;font-variant-numeric:normal;font-variant-position:normal;image-rendering:auto;isolation:auto;mix-blend-mode:normal;opacity:.5;shape-padding:0;shape-rendering:auto;solid-color:#000000;text-decoration-color:#000000;text-decoration-line:none;text-decoration-style:solid;text-indent:0;text-orientation:mixed;text-transform:none;white-space:normal"/>
 <g transform="rotate(180 23.276 23.273)">
  <path d="m13.819 11.361c-1.346 0-2.4524 1.1107-2.4524 2.4568 9.8e-5 0.65069 0.25621 1.2759 0.71638 1.736l7.7219 7.7175-7.7043 7.7043-0.01757 0.01755c-0.46006 0.46006-0.71628 1.0853-0.71638 1.736 0 1.346 1.1063 2.4524 2.4524 2.4524 0.65069-9.7e-5 1.2759-0.25621 1.736-0.71638l7.7219-7.7219 7.7043 7.7043 0.01328 0.01755c0.46004 0.46013 1.0853 0.71628 1.736 0.71638 1.346 0 2.4568-1.1063 2.4568-2.4524-1.01e-4 -0.65069-0.2606-1.2759-0.72077-1.736l-7.7175-7.7219 7.7043-7.6999 0.01328-0.01755c0.45994-0.46001 0.72048-1.0853 0.72059-1.736 0-1.346-1.1107-2.4568-2.4568-2.4568-0.6507 9.9e-5 -1.2759 0.2606-1.736 0.72078l-7.7175 7.7219-7.7043-7.7043-0.01757-0.01755c-0.46009-0.46001-1.0853-0.7207-1.736-0.7208z" style="fill-rule:evenodd;stroke-width:8.7281;stroke:#fff"/>
  <path d="m13.818 11.36c-1.346 0-2.4519 1.1116-2.4519 2.4576 9.8e-5 0.65069 0.25581 1.2759 0.71598 1.736l4.9096 4.9053 0.01421 0.01705c0.46003 0.46013 1.0853 0.71588 1.736 0.71598 1.346 0 2.4562-1.1059 2.4562-2.4519-1.01e-4 -0.65069-0.26006-1.2759-0.72024-1.736l-4.9067-4.9096-0.0014 0.0014-0.01421-0.0142c-0.46009-0.46001-1.0867-0.72156-1.7374-0.72166zm18.912 0c-0.6507 9.9e-5 -1.2759 0.26149-1.736 0.72166l-4.9067 4.9081 0.0014 0.0014-0.01421 0.01421c-0.46006 0.46005-0.71588 1.0853-0.71598 1.736 0 1.346 1.1059 2.4519 2.4519 2.4519 0.65069-9.9e-5 1.2773-0.25581 1.7374-0.71598l4.9053-4.9067 0.01278-0.01705c0.45994-0.46001 0.72014-1.0853 0.72024-1.736 0-1.346-1.1102-2.4576-2.4562-2.4576zm-14.006 14.004c-0.6507 9.9e-5 -1.2759 0.26149-1.736 0.72166l-4.9067 4.9067v0.0014c-0.45956 0.45998-0.71588 1.0842-0.71598 1.7345 0 1.346 1.1059 2.4519 2.4519 2.4519 0.65069-9.7e-5 1.2773-0.25581 1.7374-0.71598l0.0014-0.0014 4.8911-4.8883 0.01279-0.01705c0.45994-0.46001 0.72014-1.0853 0.72024-1.736 0-1.346-1.1102-2.4576-2.4562-2.4576zm9.0961 0.0014c-1.346 0-2.4519 1.1116-2.4519 2.4576 9.9e-5 0.65069 0.25581 1.2759 0.71598 1.736l4.9096 4.9053c0.46003 0.46013 1.0853 0.71588 1.736 0.71598 1.346 0 2.4562-1.1059 2.4562-2.4519-1.01e-4 -0.65069-0.26006-1.2759-0.72024-1.736l-4.9067-4.9096-0.0014 0.0043c-0.46009-0.46001-1.0867-0.72156-1.7374-0.72166z" style="fill-rule:evenodd"/>
 </g>
</svg>
