<svg width="91.696" height="44.682" version="1.1" viewBox="0 0 91.696 44.682" xmlns="http://www.w3.org/2000/svg">
 <path d="m22.273 0.013672c-12.217 0-22.113 9.618-22.113 21.559v1.5547c0 11.941 9.8965 21.559 22.113 21.559h47.314c12.217 0 22.115-9.618 22.115-21.559v-1.5547c0-11.941-9.8984-21.559-22.115-21.559z" style="color-rendering:auto;color:#000000;dominant-baseline:auto;fill:#fff;font-feature-settings:normal;font-variant-alternates:normal;font-variant-caps:normal;font-variant-ligatures:normal;font-variant-numeric:normal;font-variant-position:normal;image-rendering:auto;isolation:auto;mix-blend-mode:normal;paint-order:normal;shape-padding:0;shape-rendering:auto;solid-color:#000000;text-decoration-color:#000000;text-decoration-line:none;text-decoration-style:solid;text-indent:0;text-orientation:mixed;text-transform:none;white-space:normal"/>
 <path d="m22.109 3.3136h0.46724c10.475 0 18.835 8.4474 18.835 19.032v0.0041c0 10.585-8.3597 19.032-18.835 19.032h-0.46724c-10.475 0-18.835-8.4475-18.835-19.032v-0.0041c0-10.585 8.3597-19.032 18.835-19.032z" style="color-rendering:auto;color:#000000;dominant-baseline:auto;font-feature-settings:normal;font-variant-alternates:normal;font-variant-caps:normal;font-variant-ligatures:normal;font-variant-numeric:normal;font-variant-position:normal;image-rendering:auto;isolation:auto;mix-blend-mode:normal;paint-order:normal;shape-padding:0;shape-rendering:auto;solid-color:#000000;text-decoration-color:#000000;text-decoration-line:none;text-decoration-style:solid;text-indent:0;text-orientation:mixed;text-transform:none;white-space:normal"/>
</svg>
